v  0.0  0.0  0.0
v  0.0  0.0  1.0
v  0.0  1.0  0.0
v  0.0  1.0  1.0
v  1.0  0.0  0.0
v  1.0  0.0  1.0
v  1.0  1.0  0.0
v  1.0  1.0  1.0
v  0.0 0.0  -0.0000
v  0.5  0.5 -0.0000
v  0.5  0.0  -0.0000
v  0.0  0.5  -0.0000
 
vt 0.25 0.0
vt 0.5  0.0
vt 0    0.25
vt 0.25 0.25
vt 0.5  0.25
vt 0.75 0.25
vt 0.0  0.5
vt 0.25 0.5
vt 0.5  0.5
vt 0.75 0.5
vt 0.25 0.75
vt 0.5  0.75
vt 0.25 1.0
vt 0.5  1.0

vn  0.0  0.0  1.0
vn  0.0  0.0 -1.0
vn  0.0  1.0  0.0
vn  0.0 -1.0  0.0
vn  1.0  0.0  0.0
vn -1.0  0.0  0.0

g face1
f  1/11/2  7/14/2  5/12/2
f  1/11/2  3/13/2  7/14/2 
g face2
f  1/7/6  4/4/6  3/3/6 
f  1/7/6  2/8/6  4/4/6 
g face1n
f  9/11/2  10/14/2  11/12/2
f  9/11/2  12/13/2  10/14/2 
/g face3
/f  3/1/3  8/5/3  7/2/3 
/f  3/1/3  4/4/3  8/5/3